<?xml version="1.0" encoding="UTF-8" standalone="no" ?>
<!DOCTYPE svg PUBLIC "-//W3C//DTD SVG 1.1//EN" "http://www.w3.org/Graphics/SVG/1.1/DTD/svg11.dtd">
<svg xmlns="http://www.w3.org/2000/svg" xmlns:xlink="http://www.w3.org/1999/xlink" version="1.1" width="500" height="500" viewBox="0 0 500 500" xml:space="preserve">
<desc>Created with Fabric.js 4.6.0</desc>
<defs>
</defs>
<g transform="matrix(2.24 -0.82 1.35 3.72 79.76 208.93)" id="59mbOQLYqixQOinjScv2A"  >
<path style="stroke: rgb(18,135,233); stroke-width: 0; stroke-dasharray: none; stroke-linecap: butt; stroke-dashoffset: 0; stroke-linejoin: miter; stroke-miterlimit: 4; fill: rgb(0,0,0); fill-rule: nonzero; opacity: 1;" vector-effect="non-scaling-stroke"  transform=" translate(0, 0)" d="M 0 -20.16129 C 11.12903 -20.16129 20.16129 -11.12903 20.16129 0 C 20.16129 11.12903 11.12903 20.16129 0 20.16129 C -11.12903 20.16129 -20.16129 11.12903 -20.16129 0 C -20.16129 -11.12903 -11.12903 -20.16129 0 -20.16129 z" stroke-linecap="round" />
</g>
<g transform="matrix(2.69 -0.47 0.78 4.43 181 102.1)" id="wAvZJt4oHfajbq9UrfvXB"  >
<path style="stroke: rgb(18,135,233); stroke-width: 0; stroke-dasharray: none; stroke-linecap: butt; stroke-dashoffset: 0; stroke-linejoin: miter; stroke-miterlimit: 4; fill: rgb(0,0,0); fill-rule: nonzero; opacity: 1;" vector-effect="non-scaling-stroke"  transform=" translate(0, 0)" d="M 0 -20.16129 C 11.12903 -20.16129 20.16129 -11.12903 20.16129 0 C 20.16129 11.12903 11.12903 20.16129 0 20.16129 C -11.12903 20.16129 -20.16129 11.12903 -20.16129 0 C -20.16129 -11.12903 -11.12903 -20.16129 0 -20.16129 z" stroke-linecap="round" />
</g>
<g transform="matrix(2.69 0.47 -0.78 4.43 319.53 102.1)" id="Y8y9VCRdULlQ3az2p9G9H"  >
<path style="stroke: rgb(18,135,233); stroke-width: 0; stroke-dasharray: none; stroke-linecap: butt; stroke-dashoffset: 0; stroke-linejoin: miter; stroke-miterlimit: 4; fill: rgb(0,0,0); fill-rule: nonzero; opacity: 1;" vector-effect="non-scaling-stroke"  transform=" translate(0, 0)" d="M 0 -20.16129 C 11.12903 -20.16129 20.16129 -11.12903 20.16129 0 C 20.16129 11.12903 11.12903 20.16129 0 20.16129 C -11.12903 20.16129 -20.16129 11.12903 -20.16129 0 C -20.16129 -11.12903 -11.12903 -20.16129 0 -20.16129 z" stroke-linecap="round" />
</g>
<g transform="matrix(2.25 0.82 -1.35 3.71 422.17 208.84)" id="630rmhreOkwpQSEFhXlEk"  >
<path style="stroke: rgb(18,135,233); stroke-width: 0; stroke-dasharray: none; stroke-linecap: butt; stroke-dashoffset: 0; stroke-linejoin: miter; stroke-miterlimit: 4; fill: rgb(0,0,0); fill-rule: nonzero; opacity: 1;" vector-effect="non-scaling-stroke"  transform=" translate(0, 0)" d="M 0 -20.16129 C 11.12903 -20.16129 20.16129 -11.12903 20.16129 0 C 20.16129 11.12903 11.12903 20.16129 0 20.16129 C -11.12903 20.16129 -20.16129 11.12903 -20.16129 0 C -20.16129 -11.12903 -11.12903 -20.16129 0 -20.16129 z" stroke-linecap="round" />
</g>
<g transform="matrix(3.8 0 0 -4.22 250.97 347.02)" id="-i9YcXZPK_4I2x4vq3e9H"  >
<path style="stroke: rgb(0,0,0); stroke-width: 3; stroke-dasharray: none; stroke-linecap: butt; stroke-dashoffset: 0; stroke-linejoin: miter; stroke-miterlimit: 4; fill: rgb(0,0,0); fill-rule: nonzero; opacity: 1;" vector-effect="non-scaling-stroke"  transform=" translate(-40, -40)" d="M 60 4.346 C 71 4.346 80 13.973 80 25.738 C 80 58.45 40 74.762 40 75.65299999999999 L 40 75.65299999999999 C 40 74.763 0 58.54 0 25.738 C 0 13.884 9 4.346 20 4.346 C 31.1 4.346 40 10.835 40 22.689 C 40 10.835 48.9 4.346 60 4.346 z" stroke-linecap="round" />
</g>
<g transform="matrix(4.22 0 0 -4.22 250.97 345.43)" id="a_Hg7f1dlPCVJzlh6zINj"  >
<path style="stroke: rgb(0,0,0); stroke-width: 2; stroke-dasharray: none; stroke-linecap: butt; stroke-dashoffset: 0; stroke-linejoin: miter; stroke-miterlimit: 4; fill: none; fill-rule: nonzero; opacity: 1;" vector-effect="non-scaling-stroke"  transform=" translate(-40, -40)" d="M 60 4.346 C 71 4.346 80 13.973 80 25.738 C 80 58.45 40 74.762 40 75.65299999999999 L 40 75.65299999999999 C 40 74.763 0 58.54 0 25.738 C 0 13.884 9 4.346 20 4.346 C 31.1 4.346 40 10.835 40 22.689 C 40 10.835 48.9 4.346 60 4.346 z" stroke-linecap="round" />
</g>
</svg>